<mxfile host="app.diagrams.net" modified="2024-05-27T11:41:54.697Z" agent="Mozilla/5.0 (Windows NT 10.0; Win64; x64) AppleWebKit/537.36 (KHTML, like Gecko) Chrome/125.0.0.0 Safari/537.36" etag="BDv__hx3DtNR01LBhG86" version="24.4.8" type="github">
  <diagram name="Página-1" id="58o19tJU1bJ8rOn4mQXK">
    <mxGraphModel dx="2567" dy="454" grid="1" gridSize="10" guides="1" tooltips="1" connect="1" arrows="1" fold="1" page="1" pageScale="1" pageWidth="827" pageHeight="1169" math="0" shadow="0">
      <root>
        <mxCell id="0" />
        <mxCell id="1" parent="0" />
        <mxCell id="WEjdn2dWG7q8J0kvlJ6V-1" value="«block»&lt;br&gt;&lt;b&gt;Patient&lt;/b&gt;" style="html=1;whiteSpace=wrap;" vertex="1" parent="1">
          <mxGeometry x="250" y="354" width="110" height="50" as="geometry" />
        </mxCell>
        <mxCell id="WEjdn2dWG7q8J0kvlJ6V-2" value="«block»&lt;br&gt;&lt;b&gt;Doctor&lt;/b&gt;" style="html=1;whiteSpace=wrap;" vertex="1" parent="1">
          <mxGeometry x="380" y="354" width="110" height="50" as="geometry" />
        </mxCell>
        <mxCell id="WEjdn2dWG7q8J0kvlJ6V-3" value="«block»&lt;br&gt;&lt;b&gt;User&lt;/b&gt;" style="html=1;whiteSpace=wrap;" vertex="1" parent="1">
          <mxGeometry x="315" y="250" width="110" height="50" as="geometry" />
        </mxCell>
        <mxCell id="WEjdn2dWG7q8J0kvlJ6V-4" value="" style="endArrow=none;endFill=0;endSize=12;html=1;rounded=0;edgeStyle=orthogonalEdgeStyle;startArrow=block;startFill=0;" edge="1" parent="1" source="WEjdn2dWG7q8J0kvlJ6V-3" target="WEjdn2dWG7q8J0kvlJ6V-1">
          <mxGeometry width="160" relative="1" as="geometry">
            <mxPoint x="220" y="480" as="sourcePoint" />
            <mxPoint x="380" y="480" as="targetPoint" />
          </mxGeometry>
        </mxCell>
        <mxCell id="WEjdn2dWG7q8J0kvlJ6V-5" value="" style="endArrow=none;endFill=0;endSize=12;html=1;rounded=0;edgeStyle=orthogonalEdgeStyle;startArrow=block;startFill=0;" edge="1" parent="1" source="WEjdn2dWG7q8J0kvlJ6V-3" target="WEjdn2dWG7q8J0kvlJ6V-2">
          <mxGeometry width="160" relative="1" as="geometry">
            <mxPoint x="385" y="310" as="sourcePoint" />
            <mxPoint x="315" y="353" as="targetPoint" />
          </mxGeometry>
        </mxCell>
        <mxCell id="WEjdn2dWG7q8J0kvlJ6V-6" value="«interface»&lt;br&gt;&lt;b&gt;Check-in machine&lt;/b&gt;" style="html=1;whiteSpace=wrap;" vertex="1" parent="1">
          <mxGeometry x="83" y="40" width="110" height="50" as="geometry" />
        </mxCell>
        <mxCell id="WEjdn2dWG7q8J0kvlJ6V-7" value="«block»&lt;br&gt;&lt;b&gt;Check-in machine controller&lt;/b&gt;" style="html=1;whiteSpace=wrap;" vertex="1" parent="1">
          <mxGeometry x="-10" y="149" width="110" height="50" as="geometry" />
        </mxCell>
        <mxCell id="WEjdn2dWG7q8J0kvlJ6V-8" value="" style="endArrow=block;dashed=1;endFill=0;endSize=12;html=1;rounded=0;edgeStyle=orthogonalEdgeStyle;" edge="1" parent="1" source="WEjdn2dWG7q8J0kvlJ6V-6" target="WEjdn2dWG7q8J0kvlJ6V-7">
          <mxGeometry width="160" relative="1" as="geometry">
            <mxPoint x="330" y="210" as="sourcePoint" />
            <mxPoint x="265" y="253" as="targetPoint" />
            <Array as="points">
              <mxPoint x="140" y="120" />
              <mxPoint x="45" y="120" />
            </Array>
          </mxGeometry>
        </mxCell>
        <mxCell id="WEjdn2dWG7q8J0kvlJ6V-9" value="«block»&lt;br&gt;&lt;b&gt;Card&lt;/b&gt;" style="html=1;whiteSpace=wrap;" vertex="1" parent="1">
          <mxGeometry x="284" y="40" width="110" height="50" as="geometry" />
        </mxCell>
        <mxCell id="WEjdn2dWG7q8J0kvlJ6V-10" value="" style="endArrow=block;dashed=1;endFill=0;endSize=12;html=1;rounded=0;edgeStyle=orthogonalEdgeStyle;" edge="1" parent="1" source="WEjdn2dWG7q8J0kvlJ6V-9" target="WEjdn2dWG7q8J0kvlJ6V-6">
          <mxGeometry width="160" relative="1" as="geometry">
            <mxPoint x="337.5" y="90" as="sourcePoint" />
            <mxPoint x="272.5" y="133" as="targetPoint" />
          </mxGeometry>
        </mxCell>
        <mxCell id="WEjdn2dWG7q8J0kvlJ6V-11" value="«block»&lt;br&gt;&lt;b&gt;Ticket&lt;/b&gt;" style="html=1;whiteSpace=wrap;" vertex="1" parent="1">
          <mxGeometry x="180" y="149" width="110" height="50" as="geometry" />
        </mxCell>
        <mxCell id="WEjdn2dWG7q8J0kvlJ6V-12" value="" style="endArrow=block;dashed=1;endFill=0;endSize=12;html=1;rounded=0;edgeStyle=orthogonalEdgeStyle;" edge="1" parent="1" source="WEjdn2dWG7q8J0kvlJ6V-6" target="WEjdn2dWG7q8J0kvlJ6V-11">
          <mxGeometry width="160" relative="1" as="geometry">
            <mxPoint x="165" y="100" as="sourcePoint" />
            <mxPoint x="165" y="150" as="targetPoint" />
            <Array as="points">
              <mxPoint x="140" y="120" />
              <mxPoint x="240" y="120" />
            </Array>
          </mxGeometry>
        </mxCell>
        <mxCell id="WEjdn2dWG7q8J0kvlJ6V-13" value="«block»&lt;br&gt;&lt;b&gt;Appointments controller&lt;/b&gt;" style="html=1;whiteSpace=wrap;" vertex="1" parent="1">
          <mxGeometry x="50" y="288" width="110" height="50" as="geometry" />
        </mxCell>
        <mxCell id="WEjdn2dWG7q8J0kvlJ6V-14" value="«block»&lt;br&gt;&lt;b&gt;Message Controller&lt;/b&gt;" style="html=1;whiteSpace=wrap;" vertex="1" parent="1">
          <mxGeometry x="620" y="90" width="110" height="50" as="geometry" />
        </mxCell>
        <mxCell id="WEjdn2dWG7q8J0kvlJ6V-16" value="«block»&lt;br&gt;&lt;b&gt;Document&lt;/b&gt;" style="html=1;whiteSpace=wrap;" vertex="1" parent="1">
          <mxGeometry x="225" y="620" width="110" height="50" as="geometry" />
        </mxCell>
        <mxCell id="WEjdn2dWG7q8J0kvlJ6V-17" value="«block»&lt;br&gt;&lt;b&gt;Patient controller&lt;/b&gt;" style="html=1;whiteSpace=wrap;" vertex="1" parent="1">
          <mxGeometry x="250" y="449" width="110" height="50" as="geometry" />
        </mxCell>
        <mxCell id="WEjdn2dWG7q8J0kvlJ6V-18" value="«block»&lt;br&gt;&lt;b&gt;Human resource manager&lt;/b&gt;" style="html=1;whiteSpace=wrap;" vertex="1" parent="1">
          <mxGeometry x="93" y="525" width="110" height="50" as="geometry" />
        </mxCell>
        <mxCell id="WEjdn2dWG7q8J0kvlJ6V-19" value="«block»&lt;br&gt;&lt;b&gt;Email&lt;/b&gt;" style="html=1;whiteSpace=wrap;" vertex="1" parent="1">
          <mxGeometry x="466" y="180" width="110" height="50" as="geometry" />
        </mxCell>
        <mxCell id="WEjdn2dWG7q8J0kvlJ6V-20" value="«block»&lt;br&gt;&lt;b&gt;Validation controller&lt;/b&gt;" style="html=1;whiteSpace=wrap;" vertex="1" parent="1">
          <mxGeometry x="225" y="525" width="110" height="50" as="geometry" />
        </mxCell>
        <mxCell id="WEjdn2dWG7q8J0kvlJ6V-21" value="«block»&lt;br&gt;&lt;b&gt;Message&lt;/b&gt;" style="html=1;whiteSpace=wrap;" vertex="1" parent="1">
          <mxGeometry x="620" y="180" width="110" height="50" as="geometry" />
        </mxCell>
        <mxCell id="WEjdn2dWG7q8J0kvlJ6V-22" value="«block»&lt;br&gt;&lt;b&gt;Interface controller&lt;/b&gt;" style="html=1;whiteSpace=wrap;" vertex="1" parent="1">
          <mxGeometry x="-40" y="620" width="110" height="50" as="geometry" />
        </mxCell>
        <mxCell id="WEjdn2dWG7q8J0kvlJ6V-24" value="«block»&lt;br&gt;&lt;b&gt;Interface designer&lt;/b&gt;" style="html=1;whiteSpace=wrap;" vertex="1" parent="1">
          <mxGeometry x="-40" y="525" width="110" height="50" as="geometry" />
        </mxCell>
        <mxCell id="WEjdn2dWG7q8J0kvlJ6V-25" value="«block»&lt;br&gt;&lt;b&gt;Review&lt;/b&gt;" style="html=1;whiteSpace=wrap;" vertex="1" parent="1">
          <mxGeometry x="-90" y="395" width="110" height="50" as="geometry" />
        </mxCell>
        <mxCell id="WEjdn2dWG7q8J0kvlJ6V-26" value="«block»&lt;br&gt;&lt;b&gt;Reviews controller&lt;/b&gt;" style="html=1;whiteSpace=wrap;" vertex="1" parent="1">
          <mxGeometry x="-90" y="288" width="110" height="50" as="geometry" />
        </mxCell>
        <mxCell id="WEjdn2dWG7q8J0kvlJ6V-27" value="«block»&lt;br&gt;&lt;b&gt;Doctor controller&lt;/b&gt;" style="html=1;whiteSpace=wrap;" vertex="1" parent="1">
          <mxGeometry x="380" y="449" width="110" height="50" as="geometry" />
        </mxCell>
        <mxCell id="WEjdn2dWG7q8J0kvlJ6V-28" value="«block»&lt;br&gt;&lt;b&gt;Appointment&lt;/b&gt;" style="html=1;whiteSpace=wrap;" vertex="1" parent="1">
          <mxGeometry x="50" y="395" width="110" height="50" as="geometry" />
        </mxCell>
        <mxCell id="WEjdn2dWG7q8J0kvlJ6V-29" value="" style="endArrow=none;html=1;endSize=12;startArrow=none;startSize=14;startFill=0;edgeStyle=orthogonalEdgeStyle;rounded=0;endFill=0;" edge="1" parent="1" source="WEjdn2dWG7q8J0kvlJ6V-25" target="WEjdn2dWG7q8J0kvlJ6V-26">
          <mxGeometry y="40" relative="1" as="geometry">
            <mxPoint x="30" y="550" as="sourcePoint" />
            <mxPoint x="190" y="550" as="targetPoint" />
            <mxPoint as="offset" />
          </mxGeometry>
        </mxCell>
        <mxCell id="WEjdn2dWG7q8J0kvlJ6V-30" value="*" style="edgeLabel;resizable=0;html=1;align=left;verticalAlign=top;" connectable="0" vertex="1" parent="WEjdn2dWG7q8J0kvlJ6V-29">
          <mxGeometry x="-1" relative="1" as="geometry">
            <mxPoint x="-8" y="-22" as="offset" />
          </mxGeometry>
        </mxCell>
        <mxCell id="WEjdn2dWG7q8J0kvlJ6V-31" value="1" style="edgeLabel;resizable=0;html=1;align=right;verticalAlign=top;" connectable="0" vertex="1" parent="WEjdn2dWG7q8J0kvlJ6V-29">
          <mxGeometry x="1" relative="1" as="geometry">
            <mxPoint y="-5" as="offset" />
          </mxGeometry>
        </mxCell>
        <mxCell id="WEjdn2dWG7q8J0kvlJ6V-32" value="" style="endArrow=none;html=1;endSize=12;startArrow=none;startSize=14;startFill=0;edgeStyle=orthogonalEdgeStyle;rounded=0;endFill=0;" edge="1" parent="1" source="WEjdn2dWG7q8J0kvlJ6V-1" target="WEjdn2dWG7q8J0kvlJ6V-17">
          <mxGeometry y="40" relative="1" as="geometry">
            <mxPoint x="150" y="511" as="sourcePoint" />
            <mxPoint x="150" y="454" as="targetPoint" />
            <mxPoint as="offset" />
          </mxGeometry>
        </mxCell>
        <mxCell id="WEjdn2dWG7q8J0kvlJ6V-33" value="*" style="edgeLabel;resizable=0;html=1;align=left;verticalAlign=top;" connectable="0" vertex="1" parent="WEjdn2dWG7q8J0kvlJ6V-32">
          <mxGeometry x="-1" relative="1" as="geometry">
            <mxPoint x="-8" y="-5" as="offset" />
          </mxGeometry>
        </mxCell>
        <mxCell id="WEjdn2dWG7q8J0kvlJ6V-34" value="1" style="edgeLabel;resizable=0;html=1;align=right;verticalAlign=top;" connectable="0" vertex="1" parent="WEjdn2dWG7q8J0kvlJ6V-32">
          <mxGeometry x="1" relative="1" as="geometry">
            <mxPoint x="-1" y="-22" as="offset" />
          </mxGeometry>
        </mxCell>
        <mxCell id="WEjdn2dWG7q8J0kvlJ6V-35" value="" style="endArrow=none;html=1;endSize=12;startArrow=none;startSize=14;startFill=0;edgeStyle=orthogonalEdgeStyle;rounded=0;endFill=0;" edge="1" parent="1" source="WEjdn2dWG7q8J0kvlJ6V-2" target="WEjdn2dWG7q8J0kvlJ6V-27">
          <mxGeometry y="40" relative="1" as="geometry">
            <mxPoint x="315" y="414" as="sourcePoint" />
            <mxPoint x="315" y="451" as="targetPoint" />
            <mxPoint as="offset" />
          </mxGeometry>
        </mxCell>
        <mxCell id="WEjdn2dWG7q8J0kvlJ6V-36" value="*" style="edgeLabel;resizable=0;html=1;align=left;verticalAlign=top;" connectable="0" vertex="1" parent="WEjdn2dWG7q8J0kvlJ6V-35">
          <mxGeometry x="-1" relative="1" as="geometry">
            <mxPoint x="-8" y="-5" as="offset" />
          </mxGeometry>
        </mxCell>
        <mxCell id="WEjdn2dWG7q8J0kvlJ6V-37" value="1" style="edgeLabel;resizable=0;html=1;align=right;verticalAlign=top;" connectable="0" vertex="1" parent="WEjdn2dWG7q8J0kvlJ6V-35">
          <mxGeometry x="1" relative="1" as="geometry">
            <mxPoint x="-1" y="-22" as="offset" />
          </mxGeometry>
        </mxCell>
        <mxCell id="WEjdn2dWG7q8J0kvlJ6V-38" value="" style="endArrow=none;html=1;endSize=12;startArrow=none;startSize=14;startFill=0;edgeStyle=orthogonalEdgeStyle;rounded=0;endFill=0;" edge="1" parent="1" source="WEjdn2dWG7q8J0kvlJ6V-28" target="WEjdn2dWG7q8J0kvlJ6V-13">
          <mxGeometry y="40" relative="1" as="geometry">
            <mxPoint x="-15" y="151" as="sourcePoint" />
            <mxPoint x="-15" y="188" as="targetPoint" />
            <mxPoint as="offset" />
          </mxGeometry>
        </mxCell>
        <mxCell id="WEjdn2dWG7q8J0kvlJ6V-39" value="*" style="edgeLabel;resizable=0;html=1;align=left;verticalAlign=top;" connectable="0" vertex="1" parent="WEjdn2dWG7q8J0kvlJ6V-38">
          <mxGeometry x="-1" relative="1" as="geometry">
            <mxPoint x="-8" y="-22" as="offset" />
          </mxGeometry>
        </mxCell>
        <mxCell id="WEjdn2dWG7q8J0kvlJ6V-40" value="1" style="edgeLabel;resizable=0;html=1;align=right;verticalAlign=top;" connectable="0" vertex="1" parent="WEjdn2dWG7q8J0kvlJ6V-38">
          <mxGeometry x="1" relative="1" as="geometry">
            <mxPoint x="-2" y="-5" as="offset" />
          </mxGeometry>
        </mxCell>
        <mxCell id="WEjdn2dWG7q8J0kvlJ6V-41" value="" style="endArrow=none;html=1;endSize=12;startArrow=none;startSize=14;startFill=0;edgeStyle=orthogonalEdgeStyle;rounded=0;endFill=0;" edge="1" parent="1" source="WEjdn2dWG7q8J0kvlJ6V-21" target="WEjdn2dWG7q8J0kvlJ6V-14">
          <mxGeometry y="40" relative="1" as="geometry">
            <mxPoint x="335" y="423" as="sourcePoint" />
            <mxPoint x="335" y="460" as="targetPoint" />
            <mxPoint as="offset" />
          </mxGeometry>
        </mxCell>
        <mxCell id="WEjdn2dWG7q8J0kvlJ6V-42" value="*" style="edgeLabel;resizable=0;html=1;align=left;verticalAlign=top;" connectable="0" vertex="1" parent="WEjdn2dWG7q8J0kvlJ6V-41">
          <mxGeometry x="-1" relative="1" as="geometry">
            <mxPoint x="-8" y="-21" as="offset" />
          </mxGeometry>
        </mxCell>
        <mxCell id="WEjdn2dWG7q8J0kvlJ6V-43" value="1" style="edgeLabel;resizable=0;html=1;align=right;verticalAlign=top;" connectable="0" vertex="1" parent="WEjdn2dWG7q8J0kvlJ6V-41">
          <mxGeometry x="1" relative="1" as="geometry">
            <mxPoint y="-5" as="offset" />
          </mxGeometry>
        </mxCell>
        <mxCell id="WEjdn2dWG7q8J0kvlJ6V-44" value="" style="endArrow=none;html=1;endSize=12;startArrow=none;startSize=14;startFill=0;edgeStyle=orthogonalEdgeStyle;rounded=0;endFill=0;" edge="1" parent="1" source="WEjdn2dWG7q8J0kvlJ6V-19" target="WEjdn2dWG7q8J0kvlJ6V-21">
          <mxGeometry y="40" relative="1" as="geometry">
            <mxPoint x="685" y="190" as="sourcePoint" />
            <mxPoint x="685" y="160" as="targetPoint" />
            <mxPoint as="offset" />
          </mxGeometry>
        </mxCell>
        <mxCell id="WEjdn2dWG7q8J0kvlJ6V-45" value="*" style="edgeLabel;resizable=0;html=1;align=left;verticalAlign=top;" connectable="0" vertex="1" parent="WEjdn2dWG7q8J0kvlJ6V-44">
          <mxGeometry x="-1" relative="1" as="geometry">
            <mxPoint y="-5" as="offset" />
          </mxGeometry>
        </mxCell>
        <mxCell id="WEjdn2dWG7q8J0kvlJ6V-46" value="1" style="edgeLabel;resizable=0;html=1;align=right;verticalAlign=top;" connectable="0" vertex="1" parent="WEjdn2dWG7q8J0kvlJ6V-44">
          <mxGeometry x="1" relative="1" as="geometry">
            <mxPoint x="-3" y="-5" as="offset" />
          </mxGeometry>
        </mxCell>
        <mxCell id="WEjdn2dWG7q8J0kvlJ6V-47" value="" style="endArrow=block;dashed=1;endFill=0;endSize=12;html=1;rounded=0;edgeStyle=orthogonalEdgeStyle;" edge="1" parent="1" source="WEjdn2dWG7q8J0kvlJ6V-20" target="WEjdn2dWG7q8J0kvlJ6V-16">
          <mxGeometry width="160" relative="1" as="geometry">
            <mxPoint x="110" y="466" as="sourcePoint" />
            <mxPoint x="210" y="525" as="targetPoint" />
            <Array as="points">
              <mxPoint x="280" y="620" />
              <mxPoint x="280" y="620" />
            </Array>
          </mxGeometry>
        </mxCell>
        <mxCell id="WEjdn2dWG7q8J0kvlJ6V-48" value="" style="endArrow=block;dashed=1;endFill=0;endSize=12;html=1;rounded=0;edgeStyle=orthogonalEdgeStyle;" edge="1" parent="1" source="WEjdn2dWG7q8J0kvlJ6V-24" target="WEjdn2dWG7q8J0kvlJ6V-22">
          <mxGeometry width="160" relative="1" as="geometry">
            <mxPoint x="290" y="585" as="sourcePoint" />
            <mxPoint x="290" y="630" as="targetPoint" />
            <Array as="points">
              <mxPoint x="15" y="590" />
              <mxPoint x="15" y="590" />
            </Array>
          </mxGeometry>
        </mxCell>
        <mxCell id="WEjdn2dWG7q8J0kvlJ6V-49" value="«block»&lt;br&gt;&lt;b&gt;Patient controller&lt;/b&gt;" style="html=1;whiteSpace=wrap;" vertex="1" parent="1">
          <mxGeometry x="-510" y="210" width="110" height="50" as="geometry" />
        </mxCell>
        <mxCell id="WEjdn2dWG7q8J0kvlJ6V-50" value="«interface»&lt;br&gt;&lt;b&gt;Patient interface&lt;/b&gt;" style="html=1;whiteSpace=wrap;" vertex="1" parent="1">
          <mxGeometry x="-510" y="110" width="110" height="50" as="geometry" />
        </mxCell>
        <mxCell id="WEjdn2dWG7q8J0kvlJ6V-51" value="«block»&lt;br&gt;&lt;b&gt;Documents&lt;/b&gt;" style="html=1;whiteSpace=wrap;" vertex="1" parent="1">
          <mxGeometry x="-510" y="310" width="110" height="50" as="geometry" />
        </mxCell>
        <mxCell id="WEjdn2dWG7q8J0kvlJ6V-52" value="" style="endArrow=block;dashed=1;endFill=0;endSize=12;html=1;rounded=0;edgeStyle=orthogonalEdgeStyle;" edge="1" parent="1">
          <mxGeometry width="160" relative="1" as="geometry">
            <mxPoint x="-455.24560975609745" y="160" as="sourcePoint" />
            <mxPoint x="-455.24560975609745" y="210" as="targetPoint" />
            <Array as="points">
              <mxPoint x="-455.27" y="200" />
              <mxPoint x="-455.27" y="200" />
            </Array>
          </mxGeometry>
        </mxCell>
        <mxCell id="WEjdn2dWG7q8J0kvlJ6V-62" value="" style="endArrow=block;dashed=1;endFill=0;endSize=12;html=1;rounded=0;edgeStyle=orthogonalEdgeStyle;" edge="1" parent="1" source="WEjdn2dWG7q8J0kvlJ6V-49" target="WEjdn2dWG7q8J0kvlJ6V-51">
          <mxGeometry width="160" relative="1" as="geometry">
            <mxPoint x="-285" y="270" as="sourcePoint" />
            <mxPoint x="-285" y="320" as="targetPoint" />
            <Array as="points" />
          </mxGeometry>
        </mxCell>
        <mxCell id="WEjdn2dWG7q8J0kvlJ6V-63" value="«block»&lt;br&gt;&lt;b&gt;Patient&lt;/b&gt;" style="html=1;whiteSpace=wrap;" vertex="1" parent="1">
          <mxGeometry x="-340" y="310" width="110" height="50" as="geometry" />
        </mxCell>
        <mxCell id="WEjdn2dWG7q8J0kvlJ6V-64" value="" style="endArrow=block;dashed=1;endFill=0;endSize=12;html=1;rounded=0;edgeStyle=orthogonalEdgeStyle;" edge="1" parent="1" source="WEjdn2dWG7q8J0kvlJ6V-49" target="WEjdn2dWG7q8J0kvlJ6V-63">
          <mxGeometry width="160" relative="1" as="geometry">
            <mxPoint x="-445" y="270" as="sourcePoint" />
            <mxPoint x="-445" y="320" as="targetPoint" />
            <Array as="points" />
          </mxGeometry>
        </mxCell>
        <mxCell id="WEjdn2dWG7q8J0kvlJ6V-65" value="" style="endArrow=none;html=1;endSize=12;startArrow=none;startSize=14;startFill=0;edgeStyle=orthogonalEdgeStyle;rounded=0;endFill=0;" edge="1" parent="1" source="WEjdn2dWG7q8J0kvlJ6V-51" target="WEjdn2dWG7q8J0kvlJ6V-63">
          <mxGeometry y="40" relative="1" as="geometry">
            <mxPoint x="-370" y="338" as="sourcePoint" />
            <mxPoint x="-370" y="281" as="targetPoint" />
            <mxPoint as="offset" />
          </mxGeometry>
        </mxCell>
        <mxCell id="WEjdn2dWG7q8J0kvlJ6V-66" value="2" style="edgeLabel;resizable=0;html=1;align=left;verticalAlign=top;" connectable="0" vertex="1" parent="WEjdn2dWG7q8J0kvlJ6V-65">
          <mxGeometry x="-1" relative="1" as="geometry">
            <mxPoint x="1" y="-5" as="offset" />
          </mxGeometry>
        </mxCell>
        <mxCell id="WEjdn2dWG7q8J0kvlJ6V-67" value="1" style="edgeLabel;resizable=0;html=1;align=right;verticalAlign=top;" connectable="0" vertex="1" parent="WEjdn2dWG7q8J0kvlJ6V-65">
          <mxGeometry x="1" relative="1" as="geometry">
            <mxPoint x="-2" y="-5" as="offset" />
          </mxGeometry>
        </mxCell>
        <mxCell id="WEjdn2dWG7q8J0kvlJ6V-68" value="«block»&lt;br&gt;&lt;b&gt;Appointment controller&lt;/b&gt;" style="html=1;whiteSpace=wrap;" vertex="1" parent="1">
          <mxGeometry x="-710" y="210" width="110" height="50" as="geometry" />
        </mxCell>
        <mxCell id="WEjdn2dWG7q8J0kvlJ6V-69" value="«interface»&lt;br&gt;&lt;b&gt;Appointment interface&lt;/b&gt;" style="html=1;whiteSpace=wrap;" vertex="1" parent="1">
          <mxGeometry x="-710" y="110" width="110" height="50" as="geometry" />
        </mxCell>
        <mxCell id="WEjdn2dWG7q8J0kvlJ6V-70" value="«block»&lt;br&gt;&lt;b&gt;Appointment&lt;/b&gt;" style="html=1;whiteSpace=wrap;" vertex="1" parent="1">
          <mxGeometry x="-710" y="310" width="110" height="50" as="geometry" />
        </mxCell>
        <mxCell id="WEjdn2dWG7q8J0kvlJ6V-71" value="" style="endArrow=block;dashed=1;endFill=0;endSize=12;html=1;rounded=0;edgeStyle=orthogonalEdgeStyle;" edge="1" parent="1">
          <mxGeometry width="160" relative="1" as="geometry">
            <mxPoint x="-655.2456097560975" y="160" as="sourcePoint" />
            <mxPoint x="-655.2456097560975" y="210" as="targetPoint" />
            <Array as="points">
              <mxPoint x="-655.27" y="200" />
              <mxPoint x="-655.27" y="200" />
            </Array>
          </mxGeometry>
        </mxCell>
        <mxCell id="WEjdn2dWG7q8J0kvlJ6V-72" value="" style="endArrow=block;dashed=1;endFill=0;endSize=12;html=1;rounded=0;edgeStyle=orthogonalEdgeStyle;" edge="1" parent="1" source="WEjdn2dWG7q8J0kvlJ6V-68" target="WEjdn2dWG7q8J0kvlJ6V-70">
          <mxGeometry width="160" relative="1" as="geometry">
            <mxPoint x="-485" y="270" as="sourcePoint" />
            <mxPoint x="-485" y="320" as="targetPoint" />
            <Array as="points" />
          </mxGeometry>
        </mxCell>
        <mxCell id="WEjdn2dWG7q8J0kvlJ6V-75" value="" style="endArrow=none;html=1;endSize=12;startArrow=none;startSize=14;startFill=0;edgeStyle=orthogonalEdgeStyle;rounded=0;endFill=0;" edge="1" parent="1" source="WEjdn2dWG7q8J0kvlJ6V-70" target="WEjdn2dWG7q8J0kvlJ6V-63">
          <mxGeometry y="40" relative="1" as="geometry">
            <mxPoint x="-610" y="378.71" as="sourcePoint" />
            <mxPoint x="-614.9565217391305" y="395" as="targetPoint" />
            <mxPoint as="offset" />
            <Array as="points">
              <mxPoint x="-655" y="400" />
              <mxPoint x="-285" y="400" />
            </Array>
          </mxGeometry>
        </mxCell>
        <mxCell id="WEjdn2dWG7q8J0kvlJ6V-76" value="0..*" style="edgeLabel;resizable=0;html=1;align=left;verticalAlign=top;" connectable="0" vertex="1" parent="WEjdn2dWG7q8J0kvlJ6V-75">
          <mxGeometry x="-1" relative="1" as="geometry">
            <mxPoint x="1" y="-4" as="offset" />
          </mxGeometry>
        </mxCell>
        <mxCell id="WEjdn2dWG7q8J0kvlJ6V-77" value="1" style="edgeLabel;resizable=0;html=1;align=right;verticalAlign=top;" connectable="0" vertex="1" parent="WEjdn2dWG7q8J0kvlJ6V-75">
          <mxGeometry x="1" relative="1" as="geometry">
            <mxPoint x="-2" y="-5" as="offset" />
          </mxGeometry>
        </mxCell>
        <mxCell id="WEjdn2dWG7q8J0kvlJ6V-78" value="«block»&lt;br&gt;&lt;b&gt;Check-in machine controller&lt;/b&gt;" style="html=1;whiteSpace=wrap;" vertex="1" parent="1">
          <mxGeometry x="-850" y="210" width="110" height="50" as="geometry" />
        </mxCell>
        <mxCell id="WEjdn2dWG7q8J0kvlJ6V-79" value="«interface»&lt;br&gt;&lt;b&gt;Check-in machine&lt;/b&gt;" style="html=1;whiteSpace=wrap;" vertex="1" parent="1">
          <mxGeometry x="-850" y="110" width="110" height="50" as="geometry" />
        </mxCell>
        <mxCell id="WEjdn2dWG7q8J0kvlJ6V-80" value="«block»&lt;br&gt;&lt;b&gt;Ticket&lt;/b&gt;" style="html=1;whiteSpace=wrap;" vertex="1" parent="1">
          <mxGeometry x="-850" y="310" width="110" height="50" as="geometry" />
        </mxCell>
        <mxCell id="WEjdn2dWG7q8J0kvlJ6V-81" value="" style="endArrow=block;dashed=1;endFill=0;endSize=12;html=1;rounded=0;edgeStyle=orthogonalEdgeStyle;" edge="1" parent="1">
          <mxGeometry width="160" relative="1" as="geometry">
            <mxPoint x="-795.2456097560975" y="160" as="sourcePoint" />
            <mxPoint x="-795.2456097560975" y="210" as="targetPoint" />
            <Array as="points">
              <mxPoint x="-795.27" y="200" />
              <mxPoint x="-795.27" y="200" />
            </Array>
          </mxGeometry>
        </mxCell>
        <mxCell id="WEjdn2dWG7q8J0kvlJ6V-82" value="" style="endArrow=block;dashed=1;endFill=0;endSize=12;html=1;rounded=0;edgeStyle=orthogonalEdgeStyle;" edge="1" parent="1" source="WEjdn2dWG7q8J0kvlJ6V-78" target="WEjdn2dWG7q8J0kvlJ6V-80">
          <mxGeometry width="160" relative="1" as="geometry">
            <mxPoint x="-625" y="270" as="sourcePoint" />
            <mxPoint x="-625" y="320" as="targetPoint" />
            <Array as="points" />
          </mxGeometry>
        </mxCell>
        <mxCell id="WEjdn2dWG7q8J0kvlJ6V-84" value="«block»&lt;br&gt;&lt;b&gt;Card&lt;/b&gt;" style="html=1;whiteSpace=wrap;" vertex="1" parent="1">
          <mxGeometry x="-1010" y="110" width="110" height="50" as="geometry" />
        </mxCell>
        <mxCell id="WEjdn2dWG7q8J0kvlJ6V-85" value="" style="endArrow=block;dashed=1;endFill=0;endSize=12;html=1;rounded=0;edgeStyle=orthogonalEdgeStyle;" edge="1" source="WEjdn2dWG7q8J0kvlJ6V-79" parent="1" target="WEjdn2dWG7q8J0kvlJ6V-84">
          <mxGeometry width="160" relative="1" as="geometry">
            <mxPoint x="-775" y="184" as="sourcePoint" />
            <mxPoint x="-945" y="224" as="targetPoint" />
            <Array as="points" />
          </mxGeometry>
        </mxCell>
      </root>
    </mxGraphModel>
  </diagram>
</mxfile>
